<svg width="221" height="64" viewBox="0 0 221 64" fill="none" xmlns="http://www.w3.org/2000/svg">
<path d="M69.1633 48H77.061V38.3977H79.7883L84.9019 48H93.4815L87.5724 37.1477C90.669 35.6562 92.5156 32.8295 92.5156 28.7955C92.5156 22.6023 88.1832 18.9091 81.7201 18.9091H69.1633V48ZM77.061 32.2614V25.2159H79.8451C82.615 25.2159 84.2769 26.2955 84.2769 28.7955C84.2769 31.2812 82.615 32.2614 79.8451 32.2614H77.061ZM96.1957 48H104.037V26.1818H96.1957V48ZM100.116 23.9091C102.247 23.9091 103.98 22.304 103.98 20.3295C103.98 18.3551 102.247 16.75 100.116 16.75C97.9854 16.75 96.2525 18.3551 96.2525 20.3295C96.2525 22.304 97.9854 23.9091 100.116 23.9091ZM116.129 48.2841C119.198 48.2841 121.3 46.6364 122.209 44.4205H122.379V48H130.163V18.9091H122.323V29.9886H122.209C121.357 27.7727 119.311 25.8977 116.073 25.8977C111.754 25.8977 107.55 29.1932 107.55 37.0909C107.55 44.6477 111.47 48.2841 116.129 48.2841ZM119.027 42.2614C116.868 42.2614 115.618 40.3295 115.618 37.0909C115.618 33.8523 116.868 31.9205 119.027 31.9205C121.186 31.9205 122.493 33.8523 122.493 37.0909C122.493 40.2727 121.186 42.2614 119.027 42.2614ZM144.667 48.3977C150.719 48.3977 154.611 45.5 155.349 40.9545H148.19C147.736 42.1903 146.443 42.8864 144.838 42.8864C142.508 42.8864 141.145 41.3523 141.145 39.25V38.9091H155.349V37.0909C155.349 30.1449 151.088 25.8977 144.497 25.8977C137.736 25.8977 133.417 30.3864 133.417 37.1477C133.417 44.2074 137.679 48.3977 144.667 48.3977ZM141.145 34.5909C141.187 32.7017 142.75 31.4091 144.667 31.4091C146.613 31.4091 148.091 32.7159 148.133 34.5909H141.145ZM178.692 33.2841C178.493 28.6676 174.658 25.8977 168.351 25.8977C162.115 25.8977 158.266 28.4545 158.294 33C158.266 36.4375 160.496 38.6392 164.942 39.4205L168.806 40.1023C170.51 40.4148 171.277 40.8693 171.306 41.6932C171.277 42.6023 170.24 43.1136 168.806 43.1136C167.03 43.1136 165.78 42.3466 165.567 40.9545H157.783C158.209 45.429 162.073 48.3977 168.749 48.3977C174.786 48.3977 179.232 45.4574 179.26 40.7841C179.232 37.5597 177.073 35.6847 172.612 34.875L168.181 34.0795C166.519 33.7812 166.05 33.1847 166.078 32.5455C166.05 31.6364 167.172 31.125 168.522 31.125C170.07 31.125 171.362 31.9489 171.476 33.2841H178.692ZM182.464 48H190.305V26.1818H182.464V48ZM186.385 23.9091C188.516 23.9091 190.249 22.304 190.249 20.3295C190.249 18.3551 188.516 16.75 186.385 16.75C184.254 16.75 182.521 18.3551 182.521 20.3295C182.521 22.304 184.254 23.9091 186.385 23.9091ZM205.012 48.3977C212.114 48.3977 216.319 43.8523 216.319 37.1477C216.319 30.4432 212.114 25.8977 205.012 25.8977C197.909 25.8977 193.705 30.4432 193.705 37.1477C193.705 43.8523 197.909 48.3977 205.012 48.3977ZM205.069 42.6023C202.966 42.6023 201.716 40.5142 201.716 37.0909C201.716 33.6676 202.966 31.5795 205.069 31.5795C207.057 31.5795 208.307 33.6676 208.307 37.0909C208.307 40.5142 207.057 42.6023 205.069 42.6023Z" fill="#4F4F4F"/>
<path d="M56.3692 31.0271C56.362 29.7216 55.9333 28.4562 55.1518 27.4333C54.3702 26.4104 53.2808 25.689 52.0577 25.3843L46.8465 12.7756C46.7058 12.4203 46.467 12.1161 46.1601 11.9014C45.8532 11.6867 45.4919 11.5712 45.1219 11.5692H18.8781C18.5331 11.5757 18.1966 11.6809 17.9056 11.8731C17.6145 12.0654 17.3802 12.3373 17.2285 12.6589L11.9422 25.3454C10.7129 25.6516 9.61886 26.3788 8.83662 27.4097C8.05437 28.4405 7.62956 29.7149 7.63074 31.0271V44.6476H11.3799V48.5392C11.3799 49.5713 11.7748 50.5612 12.4779 51.291C13.181 52.0208 14.1346 52.4308 15.129 52.4308C16.1233 52.4308 17.0769 52.0208 17.78 51.291C18.4831 50.5612 18.8781 49.5713 18.8781 48.5392V44.6476H45.1219V48.5392C45.1219 49.5713 45.5169 50.5612 46.22 51.291C46.9231 52.0208 47.8767 52.4308 48.871 52.4308C49.8653 52.4308 50.8189 52.0208 51.522 51.291C52.2251 50.5612 52.6201 49.5713 52.6201 48.5392V44.6476H56.3692V31.0271ZM20.0028 15.4608H43.9971L47.9337 25.1898H16.0662L20.0028 15.4608ZM15.129 38.8103C14.1346 38.8103 13.181 38.4003 12.4779 37.6705C11.7748 36.9406 11.3799 35.9508 11.3799 34.9187C11.3799 33.8866 11.7748 32.8967 12.4779 32.1669C13.181 31.4371 14.1346 31.0271 15.129 31.0271C16.1233 31.0271 17.0769 31.4371 17.78 32.1669C18.4831 32.8967 18.8781 33.8866 18.8781 34.9187C18.8781 35.9508 18.4831 36.9406 17.78 37.6705C17.0769 38.4003 16.1233 38.8103 15.129 38.8103ZM48.871 38.8103C47.8767 38.8103 46.9231 38.4003 46.22 37.6705C45.5169 36.9406 45.1219 35.9508 45.1219 34.9187C45.1219 33.8866 45.5169 32.8967 46.22 32.1669C46.9231 31.4371 47.8767 31.0271 48.871 31.0271C49.8653 31.0271 50.8189 31.4371 51.522 32.1669C52.2251 32.8967 52.6201 33.8866 52.6201 34.9187C52.6201 35.9508 52.2251 36.9406 51.522 37.6705C50.8189 38.4003 49.8653 38.8103 48.871 38.8103Z" fill="#2F80ED"/>
<g clip-path="url(#clip0)">
<g filter="url(#filter0_d)">
<path d="M36.9022 16.8051L23.7635 28.6832L33.955 31.8434L26.3041 43.5693L41.0862 29.556L33.13 26.0077L36.9022 16.8051Z" fill="#FBB11C"/>
</g>
</g>
<defs>
<filter id="filter0_d" x="19.7635" y="16.8051" width="25.3226" height="34.7641" filterUnits="userSpaceOnUse" color-interpolation-filters="sRGB">
<feFlood flood-opacity="0" result="BackgroundImageFix"/>
<feColorMatrix in="SourceAlpha" type="matrix" values="0 0 0 0 0 0 0 0 0 0 0 0 0 0 0 0 0 0 127 0"/>
<feOffset dy="4"/>
<feGaussianBlur stdDeviation="2"/>
<feColorMatrix type="matrix" values="0 0 0 0 0.984314 0 0 0 0 0.694118 0 0 0 0 0.109804 0 0 0 0.25 0"/>
<feBlend mode="normal" in2="BackgroundImageFix" result="effect1_dropShadow"/>
<feBlend mode="normal" in="SourceGraphic" in2="effect1_dropShadow" result="shape"/>
</filter>
<clipPath id="clip0">
<rect width="26.8308" height="26.8308" fill="white" transform="translate(18.7076 16.7385)"/>
</clipPath>
</defs>
</svg>
